<svg id="visual" viewBox="0 0 1920 1080" width="1920" height="1080" xmlns="http://www.w3.org/2000/svg" xmlns:xlink="http://www.w3.org/1999/xlink" version="1.1"><path d="M0 716L53.3 716.8C106.7 717.7 213.3 719.3 320 726.8C426.7 734.3 533.3 747.7 640 764.3C746.7 781 853.3 801 960 816.2C1066.7 831.3 1173.3 841.7 1280 858.7C1386.7 875.7 1493.3 899.3 1600 898.8C1706.7 898.3 1813.3 873.7 1866.7 861.3L1920 849L1920 1081L1866.7 1081C1813.3 1081 1706.7 1081 1600 1081C1493.3 1081 1386.7 1081 1280 1081C1173.3 1081 1066.7 1081 960 1081C853.3 1081 746.7 1081 640 1081C533.3 1081 426.7 1081 320 1081C213.3 1081 106.7 1081 53.3 1081L0 1081Z" fill="#c93a36" stroke-linecap="round" stroke-linejoin="miter"></path></svg>